HIERARCHY
ROOT hip
{
  OFFSET 0.0 0.0 0.0
  CHANNELS 6 Xposition Yposition Zposition Zrotation Yrotation Xrotation
  JOINT torso
  {
    OFFSET 0.0 0.0 0.0
    CHANNELS 3 Zrotation Xrotation Yrotation
    JOINT neck
    {
      OFFSET -8.600829999999974 327.7417449999999 60.895874000000276
      CHANNELS 3 Zrotation Xrotation Yrotation
      JOINT head
      {
        OFFSET 0.7211610000001087 266.848846 239.12060599999995
        CHANNELS 3 Zrotation Xrotation Yrotation
        End Site
        {
          OFFSET 0.0 0.0 0.0
        }
      }
    }
    JOINT left_collar
    {
      OFFSET -8.600829999999974 327.7417449999999 60.895874000000276
      CHANNELS 3 Zrotation Xrotation Yrotation
      JOINT left_upper_arm
      {
        OFFSET -122.29599000000002 -5.21875 31.800903999999946
        CHANNELS 3 Zrotation Xrotation Yrotation
        JOINT left_forearm
        {
          OFFSET -195.94708199999997 63.423126000000025 226.99352999999996
          CHANNELS 3 Zrotation Xrotation Yrotation
          JOINT left_hand
          {
            OFFSET -232.19226099999992 28.282164999999964 80.86950699999989
            CHANNELS 3 Zrotation Xrotation Yrotation
            End Site
            {
              OFFSET 0.0 0.0 0.0
            }
          }
        }
      }
    }
    JOINT right_collar
    {
      OFFSET -8.600829999999974 327.7417449999999 60.895874000000276
      CHANNELS 3 Zrotation Xrotation Yrotation
      JOINT right_upper_arm
      {
        OFFSET 168.41261300000002 -11.913361000000066 -9.389160000000174
        CHANNELS 3 Zrotation Xrotation Yrotation
        JOINT right_forearm
        {
          OFFSET 213.49279800000005 104.82293699999997 83.52258300000017
          CHANNELS 3 Zrotation Xrotation Yrotation
          JOINT right_hand
          {
            OFFSET 222.067185 62.005675999999994 -110.52026300000034
            CHANNELS 3 Zrotation Xrotation Yrotation
            End Site
            {
              OFFSET 0.0 0.0 0.0
            }
          }
        }
      }
    }
  }
}
MOTION
Frames: 19
Frame Time: 0.01
-313.65339656082574 113.30273328542985 1242.7429897920872 0.17008582598024496 -19.69747190831055 -5.318966641733613 -1.1007465180244242 10.089269485309828 0.37893420877050976 -5.653739669631514 0.9330407670905453 5.056087148982625 0.0 0.0 0.0 0.9709506676639049 0.08033651660522043 3.353440323758805 56.78907509015813 43.45963493206409 26.203874471335848 40.72188583110222 13.663602434164284 1.5886037718509947 0.0 0.0 0.0 -6.719896308282038 -0.4387295976678496 -0.4769228003250612 -71.86152247960851 18.563122804132714 -23.511170033728977 -30.250366328886273 -14.154717673130428 2.1585603360859684 0.0 0.0 0.0
-314.5318569587195 112.85134388367278 1240.2661435562209 0.16940026011620185 -19.736780949288537 -5.298145312123612 -1.073031990020275 10.07972360353111 0.37601803046204296 -5.630908197222377 0.8933636090408645 5.03614727780873 0.0 0.0 0.0 0.9140491216085992 0.0699159735026024 3.301586264699918 56.81977341277895 43.42286123169731 26.334094273563913 40.71037998645544 13.664511888051747 1.5708873376884636 0.0 0.0 0.0 -6.678187040163399 -0.4339664911490464 -0.4597251874927779 -71.90538956428554 18.561309980665882 -23.5418961795413 -30.477579010346652 -14.296525221960747 1.2963394961026864 0.0 0.0 0.0
-315.4206791784294 112.40489859458043 1237.7641646001703 0.16882699710253274 -19.77527458932755 -5.274940575435376 -1.0453170184299645 10.06779102739342 0.3730538158872498 -5.606767339478825 0.8546154413761856 5.015020183096582 0.0 0.0 0.0 0.8578422746812053 0.05967693233259639 3.248235392524569 56.849362330486755 43.3862108649936 26.462400608247385 40.69826603447427 13.665602537969697 1.5517336159569195 0.0 0.0 0.0 -6.636839687601674 -0.42951001254252513 -0.4446261130416993 -71.94936723171914 18.559815196326593 -23.571065184820583 -30.70261847864424 -14.442337227049974 0.42013485313611915 0.0 0.0 0.0
-316.322740301373 111.95831814700823 1235.2200101449125 0.16898077131339231 -19.813182680845554 -5.250507960902445 -1.0178199077152958 10.053420785179625 0.3700605853185056 -5.581408785616303 0.8170180593459214 4.992785094460663 0.0 0.0 0.0 0.8027155688291393 0.04970560439391158 3.193415429715797 56.87719893649196 43.34954501663093 26.588203597590812 40.68536704456428 13.666971291968135 1.5305633116175985 0.0 0.0 0.0 -6.5959830723949615 -0.4253735712599715 -0.4316885776729501 -71.99338443052555 18.558700651431582 -23.598355503140542 -30.923010127110764 -14.590606454285826 -0.46093989866301127 0.0 0.0 0.0
-317.2412450378882 111.50553149159322 1232.6146992060924 0.1705279085920942 -19.85081670033722 -5.226247101033675 -0.9907425874344166 10.03664729269231 0.36705740288596883 -5.5550117481947385 0.7807787469803397 4.969599870857262 0.0 0.0 0.0 0.74905476230034 0.040082902854252284 3.137281984177517 56.90259630623882 43.312706195103715 26.710899518555486 40.671508779683954 13.668718924724184 1.5067847810398434 0.0 0.0 0.0 -6.5557375912404625 -0.4215564030835461 -0.42087022193822177 -72.03736281937633 18.558027053503125 -23.623451625817847 -31.13644522946292 -14.739643128562028 -1.3371462342048788 0.0 0.0 0.0
-318.1795813222438 111.03958334437527 1229.9279173751358 0.1741740371823617 -19.888567671461686 -5.203793016381055 -0.9642651979593487 10.017603220497678 0.364063212869327 -5.527851779703827 0.7460902262514559 4.945708917601841 0.0 0.0 0.0 0.6972415805247486 0.0308828753822581 3.080137275811423 56.92483729492311 43.275527217119524 26.82986947774109 40.656523295457646 13.670945853778301 1.4798137665869178 0.0 0.0 0.0 -6.5162182696037805 -0.4180430029586502 -0.41201578446122633 -72.08121175155294 18.557852007465446 -23.646049102252963 -31.340859824357633 -14.887666877694253 -2.1983577902569285 0.0 0.0 0.0
-319.14118268301564 110.55276410289909 1227.1386390501866 0.1806514224030263 -19.926900920284503 -5.184998942966366 -0.9385420877750292 9.996529463679904 0.3610967602000922 -5.500305525175055 0.7131302733787421 4.921447465752225 0.0 0.0 0.0 0.6476483608025353 0.022171258562234064 3.0224413748562866 56.943191765536355 43.23784007926852 26.944482857412098 40.64025132742945 13.673747168313245 1.4490943663533133 0.0 0.0 0.0 -6.477537762240225 -0.4148030748712972 -0.4048536146446901 -72.12482388574972 18.5582280721679 -23.66586137743162 -31.53450590986394 -15.032870999387042 -3.034345978988193 0.0 0.0 0.0
-320.12940555051074 110.03675977240688 1224.2257416855355 0.19070628639722872 -19.966347664040278 -5.171910235799493 -0.9136994692525096 9.973781708722177 0.35817659957492554 -5.472850705378401 0.6820607843007892 4.897241582067427 0.0 0.0 0.0 0.6006314918877523 0.014004122059757389 2.964814583689427 56.95693716633632 43.199484301221176 27.05410636208016 40.622543423302446 13.677207032509392 1.4141207555510236 0.0 0.0 0.0 -6.439808914660068 -0.41179202779459945 -0.3989967520076324 -72.1680717874972 18.55920046964318 -23.682628650553557 -31.716008619280775 -15.173494727808652 -3.835100990642476 0.0 0.0 0.0
-321.1474289903417 109.48281951264032 1221.1685877155878 0.2050863816714605 -20.0074936547384 -5.166729151276995 -0.8898348665141992 9.949833302331486 0.3553211924114666 -5.446060814385896 0.6530261174860041 4.873603446844037 0.0 0.0 0.0 0.5565234903647817 0.006426560934215719 2.908029975947047 56.96538217732662 43.16031436460488 27.158119150524254 40.60325989544569 13.681392647067016 1.3744590994137977 0.0 0.0 0.0 -6.403146505204473 -0.40895202824458865 -0.39394894181768164 -72.21080583428638 18.56080445844552 -23.696128814403412 -31.88440313566952 -15.307897229694754 -4.591169071571801 0.0 0.0 0.0
-322.1981832609222 108.88193844871071 1217.9475520274348 0.22452898929147636 -20.05096525382438 -5.171770608920715 -0.8670183685538742 9.925274263544612 0.35254908450399675 -5.420594253340743 0.6261506469876237 4.851121649363778 0.0 0.0 0.0 0.5156237033285405 -0.00052858871632181 2.8529956006713593 56.9678928554731 43.12020595674328 27.255933969514846 40.582269729798405 13.68634800229781 1.3297689894457567 0.0 0.0 0.0 -6.367667877473739 -0.40621360689904296 -0.3891158122755568 -72.25285363297984 18.56306242173323 -23.70619030428214 -32.03914664480746 -15.434626140659653 -5.293983805169771 0.0 0.0 0.0
-323.2843120487998 108.22505344282702 1214.5444764192996 0.24974942507204448 -20.09741342690757 -5.18940936261518 -0.8452955827305221 9.900806348950805 0.3498791499041476 -5.397177908760719 0.6015356428308394 4.830446505864548 0.0 0.0 0.0 0.47818787075227165 -0.0068419950812907615 2.8007264882826255 56.963920377283564 43.079060881775824 27.347023425441282 40.55944859690812 13.692087690791372 1.2798236162307424 0.0 0.0 0.0 -6.333492340597925 -0.40349780857279766 -0.3838212900894258 -72.29402101964284 18.565980777419366 -23.712706365545518 -32.1801034880077 -15.552473910807334 -5.936169210115865 0.0 0.0 0.0
-324.4081712424584 107.50324956716614 1210.9430375038678 0.28143006900636436 -20.147496232615886 -5.222019371131757 -0.8246920758490373 9.877234089885986 0.3473308784343683 -5.376585509318182 0.5792558601323463 4.812270694507796 0.0 0.0 0.0 0.4444170831794864 -0.012508965257805524 2.752307344503109 56.95302917550548 43.03681072566826 27.43094962537653 40.53467607931894 13.698591067063015 1.2245277758389923 0.0 0.0 0.0 -6.3007394413254545 -0.40071886998623363 -0.37732917251116765 -72.3340945580165 18.569546890094703 -23.71564985737103 -32.30750507643394 -15.660516888776678 -6.511795155415372 0.0 0.0 0.0
-325.5718647739322 106.70797505094347 1207.1290206917183 0.3202098806775098 -20.20186042736746 -5.271906534157503 -0.8052189996262868 9.855451691599848 0.3449246759282283 -5.359611429362412 0.559356503644461 4.797305799129468 0.0 0.0 0.0 0.41444696453199154 -0.017540339488352718 2.7088476044124667 56.93492405329577 42.993419612287745 27.507394565866633 40.5078321792751 13.705797045165182 1.1639327239825612 0.0 0.0 0.0 -6.269526447368727 -0.397787403484216 -0.3688695892880095 -72.37284529759323 18.573726237856448 -23.715087321545834 -32.42188913794759 -15.758134423056557 -7.016569836568271 0.0 0.0 0.0
-326.77731563488754 105.83126249907389 1203.090499370835 0.36667431473936807 -20.261122804307075 -5.34123633213457 -0.7868795338695985 9.836425670565438 0.34268213953190807 -5.347040899808304 0.5418514183964424 4.786255614484898 0.0 0.0 0.0 0.38833810268204505 -0.021962974258854875 2.671431196542085 56.909474780046544 42.94888658050339 27.576188097503238 40.478793144907364 13.713599812157355 1.0982469008721216 0.0 0.0 0.0 -6.239965538923781 -0.39461404848496207 -0.35766985017791836 -72.41003341370467 18.578460132896623 -23.711190797865797 -32.52402485002263 -15.845007741530265 -7.447959153343024 0.0 0.0 0.0
-328.0263679478734 104.86595415654347 1198.8179241505065 0.4213454961160063 -20.32585182640529 -5.431958249538332 -0.7696757447126812 9.821173160331831 0.3406262664519064 -5.339617793856335 0.5267233312085876 4.779787252189953 0.0 0.0 0.0 0.3660687662687735 -0.02581963610232868 2.6410637973840627 56.87673675154277 42.903248171454564 27.63733024888734 40.44742669333377 13.721845709519618 1.027841690213239 0.0 0.0 0.0 -6.212161214913131 -0.39111351920517085 -0.34298886443007476 -72.44541325181038 18.583664286761238 -23.704245886772252 -32.61483111656312 -15.921100530010559 -7.805228424191878 0.0 0.0 0.0
-329.3209141316564 103.80592884408999 1194.3041314040725 0.4846724534086069 -20.3965500126574 -5.545729145411771 -0.7536154266403826 9.810735949366878 0.3387815520377659 -5.338011270739892 0.5139267280542799 4.778501193344576 0.0 0.0 0.0 0.3475307864974537 -0.029168157025794637 2.6186204878947623 56.83696650128059 42.85658172022808 27.691005155802568 40.4135868225584 13.730331506320638 0.9532516220616963 0.0 0.0 0.0 -6.186208297323105 -0.3872089300996224 -0.3241539582319528 -72.47873824862033 18.589228448129102 -23.694654850040738 -32.695294753734544 -15.986624670101964 -8.089407598248675 0.0 0.0 0.0
-330.66303978515464 102.64632785048435 1189.544283216839 0.5570211520276318 -20.47363742561556 -5.683837949727692 -0.738718450130859 9.806150507456437 0.33717392972799526 -5.342782613462077 0.5033935931738562 4.782901484837154 0.0 0.0 0.0 0.3325292182779074 -0.032079757494579274 2.6047966071049853 56.7906311017594 42.80900963056592 27.737584627082136 40.377108565781704 13.738804268586025 0.8751687104827872 0.0 0.0 0.0 -6.162190744028969 -0.3828362306410849 -0.30059855866244856 -72.50976520345017 18.59501724604592 -23.68293398767282 -32.766394014357125 -16.04199541099187 -8.30318640607979 0.0 0.0 0.0
-332.0551778949285 101.3837765127597 1184.5357524256378 0.6386640383162796 -20.5574365357311 -5.847134219773181 -0.7250220695066075 9.808414500338706 0.3358305015930244 -5.354353617332422 0.49504186433825714 4.793367298206355 0.0 0.0 0.0 0.3207861002922525 -0.0346365123166071 2.6000643423036665 56.73841074303364 42.760704636122945 27.77762028270893 40.33780321175896 13.746963021947607 0.7944308719436894 0.0 0.0 0.0 -6.140181327214412 -0.377948538614587 -0.2718989100344329 -72.53825742267091 18.60087227248513 -23.66970500273849 -32.829031195291705 -16.08778041107564 -8.45075009570518 0.0 0.0 0.0
-333.5002633125011 100.01659746850397 1179.2779669868407 0.7297688318818264 -20.648158731305376 -6.035963202919984 -0.7125845872377568 9.818450578715032 0.33477900785194664 -5.372977888900508 0.48878613606462923 4.810127074672631 0.0 0.0 0.0 0.31194835261507065 -0.03692801099762073 2.604637303545153 56.68119403107003 42.71189578611623 27.811824089890496 40.295454637548694 13.754462399734829 0.7120045615988911 0.0 0.0 0.0 -6.120242122422888 -0.37252013101667036 -0.23780777420438454 -72.56398635828091 18.606615351687466 -23.65568049036664 -32.88397647851543 -16.12464676664238 -8.537569128602726 0.0 0.0 0.0
